<?xml version="1.0" encoding="UTF-8"?>
<svg xmlns="http://www.w3.org/2000/svg" version="1.1" viewBox="0 0 500 500">
  <!-- Generator: Adobe Illustrator 29.3.1, SVG Export Plug-In . SVG Version: 2.1.0 Build 151)  -->
  <defs>
    <style>
      .st0 {
        fill: #007dfc;
      }

      .st1, .st2, .st3, .st4, .st5, .st6, .st7 {
        isolation: isolate;
      }

      .st1, .st3 {
        opacity: .2;
      }

      .st8 {
        fill: #263238;
      }

      .st9 {
        fill: #eec1bb;
      }

      .st10 {
        fill: #f0f0f0;
      }

      .st2, .st11, .st12, .st13, .st3, .st14, .st15, .st6, .st7 {
        fill: #fff;
      }

      .st2, .st4 {
        opacity: .1;
      }

      .st16 {
        stroke-width: 6px;
      }

      .st16, .st17, .st18 {
        fill: none;
        stroke-linecap: round;
        stroke-linejoin: round;
      }

      .st16, .st18 {
        stroke: #263238;
      }

      .st12 {
        opacity: .5;
      }

      .st19 {
        fill: #e0e0e0;
      }

      .st13 {
        opacity: .9;
      }

      .st17 {
        stroke: #fff;
        stroke-width: 3px;
      }

      .st20 {
        fill: #d4827d;
      }

      .st18 {
        stroke-width: .69px;
      }

      .st21 {
        fill: #e4897b;
      }

      .st5, .st7 {
        opacity: .4;
      }

      .st22 {
        fill: #ebebeb;
      }

      .st23 {
        display: none;
      }

      .st24 {
        fill: #de5753;
      }

      .st25 {
        fill: #f5f5f5;
      }

      .st14, .st6 {
        opacity: .6;
      }

      .st26 {
        fill: #e6e6e6;
      }

      .st15 {
        opacity: .7;
      }

      .st27 {
        fill: #407bff;
      }
    </style>
  </defs>
  <g id="Background_Complete">
    <g>
      <rect class="st22" y="382.4" width="500" height=".25"/>
      <rect class="st22" x="416.78" y="398.49" width="33.12" height=".25"/>
      <rect class="st22" x="322.53" y="401.21" width="8.69" height=".25"/>
      <rect class="st22" x="396.59" y="389.21" width="19.19" height=".25"/>
      <rect class="st22" x="52.46" y="390.89" width="43.19" height=".25"/>
      <rect class="st22" x="104.56" y="390.89" width="6.33" height=".25"/>
      <rect class="st22" x="131.47" y="395.11" width="93.68" height=".25"/>
      <path class="st22" d="M237.01,337.8H43.91c-3.15,0-5.71-2.56-5.71-5.71V60.66c0-3.15,2.56-5.71,5.71-5.71h193.1c3.15,0,5.71,2.56,5.71,5.71v271.43c0,3.15-2.56,5.71-5.71,5.71ZM43.91,55.2c-3.01,0-5.46,2.45-5.46,5.46v271.43c0,3.01,2.45,5.46,5.46,5.46h193.1c3.01,0,5.46-2.45,5.46-5.46V60.66c0-3.01-2.45-5.46-5.46-5.46H43.91Z"/>
      <path class="st22" d="M453.31,337.8h-193.1c-3.15,0-5.71-2.56-5.71-5.71V60.66c0-3.15,2.56-5.71,5.71-5.71h193.1c3.15,0,5.71,2.56,5.71,5.71v271.43c0,3.15-2.56,5.71-5.71,5.71ZM260.21,55.2c-3.01,0-5.46,2.45-5.46,5.46v271.43c0,3.01,2.45,5.46,5.46,5.46h193.1c3.01,0,5.46-2.45,5.46-5.46V60.66c0-3.01-2.45-5.46-5.46-5.46h-193.1Z"/>
    </g>
    <g>
      <g>
        <rect class="st26" x="279.75" y="74.65" width="164.45" height="145.92"/>
        <rect class="st10" x="283.86" y="78.65" width="156" height="138"/>
        <polygon class="st11" points="320.48 78.65 283.86 216.35 283.86 151.65 303.19 78.65 320.48 78.65"/>
        <polygon class="st11" points="333.44 78.65 296.51 216.65 290.61 216.65 327.55 78.65 333.44 78.65"/>
        <polygon class="st11" points="439.86 165.73 439.86 187.78 432.39 216.65 426.5 216.65 439.86 165.73"/>
        <rect class="st26" x="335.65" y="76.17" width="2.63" height="143.56"/>
        <rect class="st26" x="386.57" y="76.17" width="2.63" height="143.56"/>
      </g>
      <g>
        <rect class="st25" x="52.46" y="301.05" width="90.67" height="81.31"/>
        <rect class="st22" x="52.46" y="301.05" width="31.56" height="81.31"/>
      </g>
      <g>
        <rect class="st22" x="70.5" y="221.41" width="90.67" height="81.31"/>
        <rect class="st19" x="70.5" y="221.41" width="31.56" height="81.31"/>
      </g>
      <g>
        <rect class="st25" x="52.46" y="140.34" width="90.67" height="81.31"/>
        <rect class="st22" x="52.46" y="140.34" width="31.56" height="81.31"/>
      </g>
      <g>
        <rect class="st22" x="151.13" y="301.12" width="90.67" height="81.31"/>
        <rect class="st19" x="151.13" y="301.12" width="31.56" height="81.31"/>
      </g>
      <g>
        <rect class="st25" x="161.17" y="251.87" width="90.67" height="50.93"/>
        <rect class="st26" x="161.17" y="251.87" width="31.56" height="50.93"/>
      </g>
      <g>
        <rect class="st22" x="154.13" y="171.41" width="58.58" height="81.31"/>
        <rect class="st19" x="154.13" y="171.41" width="20.39" height="81.31"/>
      </g>
      <g>
        <rect class="st25" x="346.51" y="301.19" width="90.67" height="81.31" transform="translate(783.69 683.7) rotate(180)"/>
        <rect class="st26" x="405.63" y="301.19" width="31.56" height="81.31" transform="translate(842.81 683.7) rotate(180)"/>
      </g>
      <g>
        <rect class="st22" x="328.47" y="236.68" width="90.67" height="66.19" transform="translate(747.6 539.55) rotate(180)"/>
        <rect class="st19" x="387.58" y="236.68" width="31.56" height="66.19" transform="translate(806.72 539.55) rotate(180)"/>
      </g>
      <g>
        <rect class="st25" x="349.75" y="204.28" width="87.44" height="32.4" transform="translate(786.93 440.96) rotate(180)"/>
        <rect class="st26" x="406.75" y="204.28" width="30.43" height="32.4" transform="translate(843.94 440.96) rotate(180)"/>
      </g>
    </g>
  </g>
  <g id="Background_Simple" class="st23">
    <g>
      <path class="st27" d="M334.64,231.41c2.22.8,4.44,1.59,6.66,2.33,18.17,6.07,39.26,9.25,55.62-.73,24.65-15.03,26.61-49.7,16.85-73.92-10.85-26.91-32.64-48.73-57.84-62.57-41.92-23.03-93.98-25.57-138.87-9.06-38.95,14.32-72.58,43.49-95.61,77.66-31.28,46.41-42.27,111.46-7.92,159.26,1.28,1.78,2.62,3.53,4.02,5.22,9.09,11.01,21.81,20.87,36.16,24.76,34.2,9.27,57.55-20.11,62.65-50.78,2.67-16.04,3.58-32.71,10.35-47.49,10.32-22.53,34.66-37.87,59.43-37.47,16.81.27,32.6,7.03,48.5,12.79Z"/>
      <path class="st13" d="M334.64,231.41c2.22.8,4.44,1.59,6.66,2.33,18.17,6.07,39.26,9.25,55.62-.73,24.65-15.03,26.61-49.7,16.85-73.92-10.85-26.91-32.64-48.73-57.84-62.57-41.92-23.03-93.98-25.57-138.87-9.06-38.95,14.32-72.58,43.49-95.61,77.66-31.28,46.41-42.27,111.46-7.92,159.26,1.28,1.78,2.62,3.53,4.02,5.22,9.09,11.01,21.81,20.87,36.16,24.76,34.2,9.27,57.55-20.11,62.65-50.78,2.67-16.04,3.58-32.71,10.35-47.49,10.32-22.53,34.66-37.87,59.43-37.47,16.81.27,32.6,7.03,48.5,12.79Z"/>
    </g>
  </g>
  <g id="Shadow">
    <ellipse id="_x3C_Path_x3E_" class="st25" cx="250" cy="416.24" rx="193.89" ry="11.32"/>
  </g>
  <g id="Bubble">
    <g>
      <rect class="st0" x="325.5" y="109.95" width="36.89" height="34.3" rx="4.53" ry="4.53"/>
      <path class="st0" d="M340.34,139.89s2.33,11.26,18.21,17.52c0,0-9.71-6.2-9.1-17.52h-9.1Z"/>
      <polyline class="st17" points="335.96 126.13 341.23 133.45 351.93 120.76"/>
    </g>
  </g>
  <g id="Character_2">
    <g>
      <path class="st8" d="M392.53,149.42c4.89,3.52,9.31,9.51,6.01,26.32-3.3,16.8-4.14,20.8-4.14,20.8l-31.99-3.6s-1.5-14.87,1.05-28.86c3.3-18.07,14.75-24.94,29.07-14.66Z"/>
      <path class="st9" d="M360.5,242.25s-10.84,57.76-13.73,81.48c-3.78,30.94-19.23,76.2-19.23,76.2l6.18,1.6s21.78-38.46,26.03-73.07c17.3-35.37,18.7-78.92,18.7-78.92l-17.94-7.28Z"/>
      <path class="st8" d="M316.04,413.93c1-.46,2.08-.73,3.17-.81h0s3.8-2.24,7.56-10.92l4.23-.02c1.47.02,2.76.95,3.25,2.33.07.19.11.39.12.59-.04,1.02-.15,2.04-.33,3.05-.38,3.17-2.47,9.96-2.47,9.96l-.72-.18,1.3-6.32c.43-2.15-1.82-.07-2.87,2.09-1.05,2.16-2.65,4.34-7.33,3.27-5.45-1.27-7.64-2.06-5.94-3.04Z"/>
      <path class="st8" d="M334.38,404.62c.8-2.05,1.82-5.72,1.82-5.72l-9.07-1.27s0,4.46-1.68,7.38c4.74-.03,8.93-.4,8.93-.4Z"/>
      <path class="st9" d="M371.75,241.33s1.35,58.76,3.42,82.56c2.7,31.05-3.05,78.53-3.05,78.53l6.37.28s13.35-42.14,10.35-76.87c9.61-38.18,1.97-81.08,1.97-81.08l-19.06-3.42Z"/>
      <path class="st8" d="M362.2,415.87c.94-.57,1.98-.95,3.07-1.14h0s3.53-2.63,6.34-11.67l4.21-.48c1.46-.14,2.85.64,3.48,1.96.09.18.15.37.18.57.07,1.02.07,2.05,0,3.07-.04,3.19-1.38,10.17-1.38,10.17l-.73-.1.61-6.42c.2-2.18-1.82.12-2.62,2.39-.81,2.26-2.17,4.6-6.93,4.05-5.55-.68-7.82-1.22-6.23-2.38Z"/>
      <path class="st8" d="M379.43,404.62c.57-2.13,1.19-5.88,1.19-5.88l-9.15-.28s.48,4.44-.87,7.52c4.71-.55,8.83-1.36,8.83-1.36Z"/>
      <path class="st8" d="M358.19,232.61l-11.89,82.22s38.73,6.01,54.23,2.49c0,0,3.8-47.48-12.38-82l-29.96-2.72Z"/>
      <path class="st9" d="M322.4,203.54l-10.34-10.22s-.36-2.74-1.36-3.5c-1-.76-8.1-3.34-8.97-2.77-.87.57-2.08,6.31-.86,7.36,1.21,1.05,7.67,2.39,8.33,2.28l11.19,13.28,2.01-6.43Z"/>
      <g>
        <path class="st0" d="M359.44,184.91c-4.46,2.37-20.3,24.5-22.63,25.6-2.33,1.1-20.16-13.36-20.16-13.36l-3.01,5.13s14.63,20.67,22.9,19.67c8.27-1,24.1-18.5,24.1-18.5l-1.2-18.53Z"/>
        <path class="st2" d="M359.44,184.91c-4.46,2.37-20.3,24.5-22.63,25.6-2.33,1.1-20.16-13.36-20.16-13.36l-3.01,5.13s14.63,20.67,22.9,19.67c8.27-1,24.1-18.5,24.1-18.5l-1.2-18.53Z"/>
      </g>
      <polygon class="st0" points="317.63 197.7 316.39 196.53 313.14 202.03 314.31 204.28 317.63 197.7"/>
      <path class="st1" d="M354.28,209.91c3.7-3.53,6.36-6.46,6.36-6.46l-.28-4.4-1.39-4.27s-6.24,5.75-4.69,15.13Z"/>
      <g>
        <path class="st0" d="M357.94,231.77c-1.25-22.02-.69-34.12-.12-40.17.63-6.45,1.62-6.69,1.62-6.69,0,0,6.99-.68,13.07-.63,4.71.16,9.4.65,14.03,1.48,4.39.73,8.72,1.78,12.97,3.13-.71,2.03-1.35,3.95-1.95,5.76-.8,2.39-1.51,4.6-2.15,6.67-1.2,3.86-2.14,7.21-2.89,10.2-2.34,9.26-2.83,15.19-3.32,22.95,0,0,7.69,20.1,9.19,34.85l-25.5,2.75-3.5-14.75-3.5,15.25-14.25-5,6.3-35.8Z"/>
        <path class="st2" d="M357.94,231.77c-1.25-22.02-.69-34.12-.12-40.17.63-6.45,1.62-6.69,1.62-6.69,0,0,6.99-.68,13.07-.63,4.71.16,9.4.65,14.03,1.48,4.39.73,8.72,1.78,12.97,3.13-.71,2.03-1.35,3.95-1.95,5.76-.8,2.39-1.51,4.6-2.15,6.67-1.2,3.86-2.14,7.21-2.89,10.2-2.34,9.26-2.83,15.19-3.32,22.95,0,0,7.69,20.1,9.19,34.85l-25.5,2.75-3.5-14.75-3.5,15.25-14.25-5,6.3-35.8Z"/>
      </g>
      <path class="st1" d="M391.29,216.9c.34-1.68.74-3.47,1.23-5.39.31-1.22.65-2.5,1.03-3.86-.97-3.41-1.97-.74-1.97-.74,0,0-1,4.12-.29,9.99Z"/>
      <path class="st9" d="M372.86,185.62c.28-.15.6-.28.95-.41.72-.57,1.6-1.94,1.55-5.28-.01-1.09-.12-2.37-.36-3.9l9.27-1.73s-3.16,6.24-.52,10.87c.91.4,1.45.97,1.35,1.73-.69,5.36-12.21,10.54-12.21,10.54,0,0-5.62-8.75-.03-11.82Z"/>
      <path class="st1" d="M375.01,176.03c.24,1.53.35,2.82.36,3.9,6.26,0,8.91-5.63,8.91-5.63l-9.27,1.73Z"/>
      <g>
        <path class="st9" d="M380.13,150.11c-8.06-.44-10.89,3.73-11.94,12.01-1.31,10.34.59,17.84,10.79,16.18,13.85-2.26,14.53-27.45,1.15-28.18Z"/>
        <path class="st20" d="M373.43,161.95s-1.23,2.04-2.53,3.21c0,0,.63,1.13,2.07,1.03l.45-4.24Z"/>
        <g>
          <path class="st8" d="M378.4,161.56c-.05.66.26,1.23.7,1.26.44.03.84-.47.89-1.13.05-.66-.26-1.23-.7-1.26-.44-.03-.84.47-.89,1.13Z"/>
          <path class="st8" d="M379.47,160.47l-1.39-.68s.62,1.27,1.39.68Z"/>
        </g>
        <g>
          <path class="st8" d="M370.19,160.78c-.05.66.26,1.23.7,1.26.44.03.84-.47.89-1.13.05-.66-.26-1.23-.7-1.26-.44-.03-.84.47-.89,1.13Z"/>
          <path class="st8" d="M371.26,159.69l-1.39-.68s.62,1.27,1.39.68Z"/>
        </g>
        <path class="st18" d="M378.79,156s2.28-.17,3.43,1.41"/>
        <path class="st18" d="M372.95,155.34s-1.39-.61-3.25.49"/>
        <path class="st8" d="M388.2,164.18s-3.41-6.83-2.55-11.91c0,0-15.61-7.4-17.29,8.77,0,0-.77-14.48,13.1-14.04,13.85.44,12.7,20.71,5.22,26.35,0,0,3.63-4.9,1.53-9.17Z"/>
        <path class="st9" d="M386.79,165.81c.12-1.29,1.58-3.42,3.98-3.02,2.48.41,3.39,5.6-2.89,6.49-.9.13-1.36-.77-1.1-3.47Z"/>
        <path class="st18" d="M379.27,168.07s-1.88,2-4.62,1.88"/>
        <path class="st18" d="M385.64,152.27s-17.43-4.53-18.88,11.81"/>
      </g>
      <g>
        <path class="st0" d="M370.1,189.59s-1.33,13.24.84,25.29c0,0,5.14-18.61,12.36-24.94l-8.3,1.19-4.9-1.53Z"/>
        <path class="st12" d="M370.1,189.59s-1.33,13.24.84,25.29c0,0,5.14-18.61,12.36-24.94l-8.3,1.19-4.9-1.53Z"/>
      </g>
      <g>
        <path class="st0" d="M383.43,183.7l-8.42,6.23v-6.63s-6.81,2.47-6.33,9.99l5.59-2.57v2.57l1.31-2.47,4.42,5.04s5.41-6.31,5.98-8.21c.56-1.9-2.55-3.96-2.55-3.96Z"/>
        <path class="st15" d="M383.43,183.7l-8.42,6.23v-6.63s-6.81,2.47-6.33,9.99l5.59-2.57v2.57l1.31-2.47,4.42,5.04s5.41-6.31,5.98-8.21c.56-1.9-2.55-3.96-2.55-3.96Z"/>
      </g>
      <g>
        <path class="st8" d="M392.23,242.12l-7.74-36.93c-.17-.8-.87-1.37-1.68-1.37h-23.86c-.74,0-1.31.67-1.18,1.4l6.45,36.17c.14.8.83,1.39,1.64,1.42l25.17.74c.77.02,1.36-.68,1.2-1.44Z"/>
        <path class="st2" d="M392.23,242.12l-7.74-36.93c-.17-.8-.87-1.37-1.68-1.37h-23.86c-.74,0-1.31.67-1.18,1.4l6.45,36.17c.14.8.83,1.39,1.64,1.42l25.17.74c.77.02,1.36-.68,1.2-1.44Z"/>
      </g>
      <path class="st9" d="M402.52,230.16l-12.3-7.75s-.94-2.6-2.08-3.13c-1.14-.53-8.63-1.52-9.35-.77-.72.75-.67,6.61.74,7.37,1.41.76,8,.69,8.62.43l13.79,10.56.58-6.72Z"/>
      <g>
        <path class="st0" d="M399.51,188.89s-8.04,11.68-6.87,21.68l10.67,17.67-7.17-3.67-3.25,6.12s8.25,12.71,18.75,9.71-12.13-51.51-12.13-51.51Z"/>
        <path class="st2" d="M399.51,188.89s-8.04,11.68-6.87,21.68l10.67,17.67-7.17-3.67-3.25,6.12s8.25,12.71,18.75,9.71-12.13-51.51-12.13-51.51Z"/>
      </g>
      <polygon class="st0" points="396.89 224.23 392.81 231.82 391.89 229.65 395.14 223.48 396.89 224.23"/>
      <g>
        <path class="st11" d="M382.03,203.82c-.94,0-.94,24.6-.94,24.6l-21.5-.62s-2.42-20.8,0-23.98h22.44Z"/>
        <path class="st4" d="M382.03,203.82c-.94,0-.94,24.6-.94,24.6l-21.5-.62s-2.42-20.8,0-23.98h22.44Z"/>
      </g>
      <path class="st8" d="M293.2,184.33l20.33,8.55c.47.2.68.73.48,1.2h0c-.2.45-.72.66-1.18.47l-20.46-8.67c-.07-.03-.13-.06-.18-.11l-2.39-1.77,3.13.27c.09,0,.19.03.27.07Z"/>
    </g>
  </g>
  <g id="Character_1">
    <g id="_x3C_Group_x3E_">
      <path class="st21" d="M225.75,226.47l-19.78,1.76-7.92-4.47s-25.4-14.15-32.01-18.62c-2.01-1.37-3.87-4.35-5.48-7.85-1.36-2.94-2.54-6.24-3.48-9.23-.45-1.41-.85-2.76-1.19-3.96-.76-2.67-1.23-4.67-1.36-5.21h0c0-.08-.02-.12-.03-.14h0s.05-.03.05-.03l6.26-1.99,5.23-1.66s.24,1.24.65,3.13c.11.51.23,1.07.36,1.67.11.48.22.99.34,1.52,1.32,5.82,3.35,13.76,4.82,15.06,2.37,2.09,32.17,22.4,33.23,22.93,1.05.53,10.55,0,10.55,0l9.76,7.09Z"/>
      <g>
        <path class="st0" d="M154.41,150.68c9.09-.13,14.89,28.06,14.89,28.06l-11.99,6.02s-5.41-8.58-5.14-19.42c.26-10.84,2.25-14.67,2.25-14.67Z"/>
        <path class="st12" d="M154.41,150.68c9.09-.13,14.89,28.06,14.89,28.06l-11.99,6.02s-5.41-8.58-5.14-19.42c.26-10.84,2.25-14.67,2.25-14.67Z"/>
      </g>
      <polygon class="st0" points="170.63 179.29 167.39 181.39 163.16 184.13 157.08 188.06 155.99 188.77 154.67 184.76 155.89 184.1 156.69 183.66 162.25 180.63 166.69 178.2 168.91 176.99 169.3 176.78 170.63 179.29"/>
      <path class="st1" d="M163.7,188.77c.07,3.41-1.29,6.25-3.14,8.52-1.36-2.94-2.54-6.24-3.48-9.23l-1.09.71-1.32-4.01,1.22-.66c-.76-2.67-1.23-4.67-1.36-5.21h0s.01-.04.01-.04v-.13s1.45-11,1.45-11c0,0,2.64,3.79,4.82,9.01.52,1.23,1.01,2.54,1.44,3.9.15.47.29.95.42,1.44.19.68.35,1.37.49,2.06.31,1.53.51,3.09.54,4.64Z"/>
      <polygon class="st21" points="153.05 409.36 161.42 410.25 162.99 392.2 154.62 391.31 153.05 409.36"/>
      <polygon class="st21" points="111.3 408.75 119.4 408.75 120.07 389.97 111.96 389.97 111.3 408.75"/>
      <path class="st8" d="M120.53,407.81h-9.85c-.33,0-.62.23-.69.56l-1.6,7.22c-.14.65.28,1.28.92,1.42.09.02.17.03.26.03,3.19-.05,5.51-.25,9.51-.25,2.47,0,9.9.26,13.31.26s3.85-3.36,2.45-3.67c-6.25-1.36-10.95-3.25-12.95-5.04-.37-.34-.86-.53-1.36-.52Z"/>
      <path class="st0" d="M121.09,408.94c-.08-.02-.13-.09-.14-.17-.01-.08.02-.15.09-.19.29-.19,2.91-1.79,3.81-1.33.21.1.34.31.33.54.05.39-.1.78-.4,1.03-.46.31-1.01.46-1.56.41-.72-.02-1.43-.12-2.12-.3ZM121.64,408.67c.95.32,1.98.27,2.89-.14.19-.17.29-.43.26-.69-.01-.15-.07-.23-.12-.23-.08-.04-.16-.06-.25-.05-.99.19-1.93.57-2.77,1.11Z"/>
      <path class="st0" d="M121.03,408.98c-.06-.04-.09-.1-.09-.18.01-.11.21-2.44,1.14-3.21.22-.2.52-.29.81-.25.3,0,.56.21.62.51.16.86-1.45,2.64-2.29,3.09h-.09s-.07.03-.1.03ZM122.33,405.82c-.57.73-.9,1.61-.96,2.54.84-.63,1.87-1.98,1.76-2.51-.01-.05-.03-.2-.28-.2h-.09c-.16,0-.31.06-.43.17Z"/>
      <path class="st8" d="M162.3,407.56h-9.85c-.33,0-.62.23-.69.56l-1.6,7.22c-.14.65.28,1.28.92,1.42.09.02.17.03.26.03,3.19-.05,5.51-.25,9.51-.25,2.47,0,9.9.26,13.31.26s3.85-3.36,2.45-3.67c-6.25-1.36-10.95-3.25-12.95-5.04-.37-.34-.86-.53-1.36-.52Z"/>
      <path class="st0" d="M162.86,408.68c-.08-.02-.13-.09-.14-.16-.01-.08.02-.15.09-.19.29-.19,2.91-1.79,3.81-1.33.21.1.34.31.33.54.05.39-.1.78-.4,1.03-.46.31-1.01.46-1.56.41-.72-.02-1.43-.12-2.12-.3ZM163.41,408.41c.95.32,1.98.27,2.89-.14.19-.17.29-.43.26-.69-.01-.15-.07-.23-.12-.23-.08-.04-.16-.06-.25-.05-.99.19-1.93.57-2.77,1.11Z"/>
      <path class="st0" d="M162.81,408.72c-.06-.04-.09-.1-.09-.18.01-.11.21-2.44,1.14-3.21.22-.2.52-.29.81-.25.3,0,.56.21.62.51.16.86-1.45,2.64-2.29,3.09h-.09s-.07.03-.1.03ZM164.11,405.56c-.57.73-.9,1.61-.96,2.54.84-.63,1.87-1.98,1.76-2.51-.01-.05-.03-.2-.28-.2h-.09c-.16,0-.31.06-.43.17Z"/>
      <polygon class="st1" points="154.62 391.31 162.99 392.2 162.17 401.51 153.8 400.62 154.62 391.31"/>
      <polygon class="st1" points="111.96 389.98 120.07 389.98 119.72 399.66 111.61 399.66 111.96 389.98"/>
      <path class="st0" d="M115.3,225.22h43.04c4.09,22.34,16.9,101.41,7.71,171.87l-14.57-1.81s1.35-93.53-11.51-128.1c-1.48,18.5-3.24,38.19-4.76,48.67-3.74,25.79-11.76,82.14-11.76,82.14h-14.83s3.03-53.94,4.44-79.28c1.53-27.51,2.2-87.83,2.25-93.48Z"/>
      <path class="st1" d="M139.97,267.18c1.9,5.1,3.48,11.46,4.81,18.62,1.2-16.47-3.61-33.93-3.61-33.93l-1.2,15.31Z"/>
      <g>
        <polygon class="st0" points="167.72 400.48 149.68 397.8 150.24 392.81 168.99 395.27 167.72 400.48"/>
        <polygon class="st6" points="167.72 400.48 149.68 397.8 150.24 392.81 168.99 395.27 167.72 400.48"/>
      </g>
      <g>
        <polygon class="st0" points="125.23 398.11 107.74 398.11 107.74 392.88 125.89 392.54 125.23 398.11"/>
        <polygon class="st6" points="125.23 398.11 107.74 398.11 107.74 392.88 125.89 392.54 125.23 398.11"/>
      </g>
      <polygon class="st8" points="115.22 232.7 115.18 226.47 159.04 223.76 159.35 229.8 115.22 232.7"/>
      <rect class="st0" x="124.34" y="224.89" width="1.98" height="9.13"/>
      <rect class="st0" x="155" y="221.9" width="1.98" height="9.13" transform="translate(-16.07 11.96) rotate(-4.17)"/>
      <g>
        <path class="st0" d="M159.04,223.76l-43.86,3.27c.05-3.84-.1-8.12-.39-12.64-.54-8.35-1.57-17.49-2.72-26.06-2.44-18.21-5.43-33.84-5.43-33.84,20.4-5.15,47.77-3.81,47.77-3.81,7.11,26.61,4.63,73.08,4.63,73.08Z"/>
        <path class="st14" d="M159.04,223.76l-43.86,3.27c.05-3.84-.1-8.12-.39-12.64-.54-8.35-1.57-17.49-2.72-26.06-2.44-18.21-5.43-33.84-5.43-33.84,20.4-5.15,47.77-3.81,47.77-3.81,7.11,26.61,4.63,73.08,4.63,73.08Z"/>
      </g>
      <path class="st21" d="M122.21,151.73c3.95,3.59,13.63,2.26,13.63,2.26,0,0,6.04-1.65,4.77-3.54-3.56-.59-5.28-2.25-5.99-4.37-.41-1.24-.47-2.63-.36-4.06.05-.75.16-1.52.3-2.27l-11.96-8.86c1.57,5.85,3.49,16.61-.38,20.85Z"/>
      <path class="st1" d="M125.36,136.52c.47,7.18,6.37,9.16,9.26,9.56-.41-1.24-.47-2.63-.36-4.06l-8.9-5.5Z"/>
      <g>
        <path class="st8" d="M146,113.83c2.91,2.76,1.7,11.17-4.23,15.47-5.93,4.3-5.93-16.5-5.93-16.5,0,0,8.31-.73,10.16,1.03Z"/>
        <path class="st21" d="M124.55,138.18c2.88,4.14,7.57,5.22,11.64,3.93,2.62-.83,4.98-2.64,6.45-5.25.2-.34.37-.7.54-1.07,2.92-6.83,3.85-18.77-3.37-23.25-5.13-3.23-11.91-1.69-15.14,3.44-.93,1.45-1.49,3.11-1.65,4.84-.89,7.98-1.78,12.64,1.54,17.36Z"/>
        <path class="st8" d="M134.65,125.09c-.15.63.14,1.22.57,1.29.43.07.85-.4.96-1.04.11-.64-.15-1.22-.57-1.29-.42-.07-.85.39-.96,1.04Z"/>
        <path class="st8" d="M141.94,126.33c-.15.63.15,1.22.57,1.29.42.07.85-.4.96-1.04s-.15-1.22-.57-1.29c-.42-.07-.86.43-.96,1.04Z"/>
        <path class="st24" d="M139.57,126.25c.43,2.1,1.15,4.14,2.14,6.04-1.01.49-2.18.51-3.2.05l1.06-6.09Z"/>
        <path class="st8" d="M132.79,122.34c.14.04.29.01.39-.08.7-.68,1.67-1,2.64-.85.2.05.41-.07.46-.28.05-.2-.07-.41-.28-.46,0,0,0,0,0,0-1.22-.22-2.46.17-3.34,1.03-.16.14-.17.38-.03.54,0,0,0,0,0,0,.05.04.1.08.16.1Z"/>
        <path class="st8" d="M136.89,135.5h0c-1.92-.04-3.7-1.01-4.78-2.6-.06-.1-.02-.22.07-.28.09-.06.21-.03.27.06,0,0,0,0,0,.01,1.02,1.45,2.67,2.34,4.45,2.39.11,0,.2.09.2.19,0,0,0,.01,0,.02,0,.11-.09.2-.19.2,0,0-.01,0-.02,0Z"/>
        <path class="st8" d="M145.5,124.35c.07.04.14.06.22.05.2-.06.32-.27.27-.47,0,0,0,0,0,0-.32-1.2-1.2-2.16-2.36-2.59-.2-.06-.41.05-.48.25h0c-.06.2.06.41.26.48h0c.91.36,1.59,1.14,1.84,2.08.05.1.15.18.26.2Z"/>
        <path class="st8" d="M130.51,111.94v3.57c-1.23.47-2.08,1.69-1.72,3.14.77,3.09-1.46,7.47-3.95,9.02,0,0,.09-1.29-1.03-1.12-1.12.17-1.63,6.88.09,10.31,0,0-2.84-3.27-3.78-10.49-.87-6.68-.42-12.1,1.21-14.44h9.19Z"/>
        <path class="st21" d="M118.45,126.72c.57,1.94,1.89,3.58,3.67,4.55,2.36,1.27,4.12-.71,3.96-3.24-.16-2.25-1.56-5.7-4.18-5.89-2.62-.2-4.13,2.2-3.45,4.59Z"/>
        <path class="st8" d="M119.75,117.97s-2.47-5.93,3.97-10.28c6.43-4.35,21.82.72,22.9,4.25,1.07,3.53-10.49,9.98-26.86,6.03Z"/>
      </g>
      <polygon class="st0" points="123.72 148.04 133.51 153.4 134.85 146.08 141.71 150.54 141.71 159.89 134.45 155.56 129.35 163.2 119.28 152.14 123.72 148.04"/>
      <rect class="st11" x="137.28" y="224.23" width="10.04" height="7.54" rx="1.16" ry="1.16" transform="translate(-12.38 8.21) rotate(-3.17)"/>
      <polygon class="st12" points="123.72 148.04 133.51 153.4 134.85 146.08 141.71 150.54 141.71 159.89 134.45 155.56 129.35 163.2 119.28 152.14 123.72 148.04"/>
      <path class="st1" d="M130.51,212.46c-2.91,4.38-12.22,4.35-15.72,1.94-.54-8.35-1.57-17.49-2.72-26.06l18.44,24.12Z"/>
      <path class="st21" d="M115.18,178.74s2.07,13.47,4.1,16.11c2.03,2.64,43.96,25.58,43.96,25.58l14.51-1.05,6.68,7.65s-19.33,3-21.44,2.42-3.72-1.45-3.72-1.45c0,0-44.01-17.33-47.7-21.28-3.69-3.96-7.91-24.29-7.91-24.29l11.55-3.69Z"/>
      <g>
        <path class="st0" d="M106.64,154.49c7.68-1.6,11.64,30.27,11.64,30.27l-15.71,4.01s-5.39-32.31,4.06-34.28Z"/>
        <path class="st12" d="M106.64,154.49c7.68-1.6,11.64,30.27,11.64,30.27l-15.71,4.01s-5.39-32.31,4.06-34.28Z"/>
      </g>
      <polygon class="st0" points="101.66 188 119.28 183.78 119.28 186.81 102.45 191.69 101.66 188"/>
    </g>
  </g>
  <g id="Boxes">
    <g>
      <path class="st16" d="M162.04,387.03v-137.11c0-5.93-1.82-11.72-5.21-16.59l-4.79-6.86h85.1l4.79,6.86c3.39,4.87,5.21,10.66,5.21,16.59v135.78"/>
      <g>
        <g>
          <circle class="st8" cx="342.85" cy="408.24" r="8.81"/>
          <path class="st7" d="M347.26,408.24c0-2.43-1.97-4.4-4.4-4.4s-4.4,1.97-4.4,4.4,1.97,4.4,4.4,4.4,4.4-1.97,4.4-4.4Z"/>
        </g>
        <path class="st8" d="M341.79,410.2h0c-1.41,0-2.66-.88-3.15-2.2l-5.2-14.22h11.69v13.07c0,1.85-1.5,3.35-3.35,3.35Z"/>
        <path class="st3" d="M341.79,410.2h0c-1.41,0-2.66-.88-3.15-2.2l-5.2-14.22h11.69v13.07c0,1.85-1.5,3.35-3.35,3.35Z"/>
      </g>
      <g>
        <g>
          <circle class="st8" cx="244.85" cy="408.24" r="8.81"/>
          <path class="st7" d="M249.26,408.24c0-2.43-1.97-4.4-4.4-4.4s-4.4,1.97-4.4,4.4,1.97,4.4,4.4,4.4,4.4-1.97,4.4-4.4Z"/>
        </g>
        <path class="st8" d="M243.79,410.2h0c-1.41,0-2.66-.88-3.15-2.2l-5.2-14.22h11.69v13.07c0,1.85-1.5,3.35-3.35,3.35Z"/>
        <path class="st3" d="M243.79,410.2h0c-1.41,0-2.66-.88-3.15-2.2l-5.2-14.22h11.69v13.07c0,1.85-1.5,3.35-3.35,3.35Z"/>
      </g>
      <path class="st8" d="M358,383.53v8.32c0,1.55-1.26,2.81-2.81,2.81h-196.93c-1.55,0-2.81-1.26-2.81-2.81v-8.32h202.55Z"/>
      <path class="st7" d="M358,383.53v8.32c0,1.55-1.26,2.81-2.81,2.81h-196.93c-1.55,0-2.81-1.26-2.81-2.81v-8.32h202.55Z"/>
      <path class="st3" d="M288,383.53v8.32c0,1.55-1.26,2.81-2.81,2.81h-126.93c-1.55,0-2.81-1.26-2.81-2.81v-8.32h132.55Z"/>
      <g>
        <g>
          <circle class="st8" cx="271.85" cy="408.24" r="8.81"/>
          <path class="st6" d="M276.26,408.24c0-2.43-1.97-4.4-4.4-4.4s-4.4,1.97-4.4,4.4,1.97,4.4,4.4,4.4,4.4-1.97,4.4-4.4Z"/>
        </g>
        <path class="st8" d="M270.79,410.2h0c-1.41,0-2.66-.88-3.15-2.2l-5.2-14.22h11.69v13.07c0,1.85-1.5,3.35-3.35,3.35Z"/>
        <path class="st7" d="M270.79,410.2h0c-1.41,0-2.66-.88-3.15-2.2l-5.2-14.22h11.69v13.07c0,1.85-1.5,3.35-3.35,3.35Z"/>
      </g>
      <g>
        <g>
          <circle class="st8" cx="173.85" cy="408.24" r="8.81"/>
          <path class="st6" d="M178.26,408.24c0-2.43-1.97-4.4-4.4-4.4s-4.4,1.97-4.4,4.4,1.97,4.4,4.4,4.4,4.4-1.97,4.4-4.4Z"/>
        </g>
        <path class="st8" d="M172.79,410.2h0c-1.41,0-2.66-.88-3.15-2.2l-5.2-14.22h11.69v13.07c0,1.85-1.5,3.35-3.35,3.35Z"/>
        <path class="st7" d="M172.79,410.2h0c-1.41,0-2.66-.88-3.15-2.2l-5.2-14.22h11.69v13.07c0,1.85-1.5,3.35-3.35,3.35Z"/>
      </g>
      <g>
        <rect class="st0" x="179.84" y="318.98" width="93.25" height="64.55"/>
        <rect class="st7" x="179.84" y="318.98" width="93.25" height="64.55"/>
        <rect class="st3" x="179.84" y="318.98" width="43.27" height="64.55"/>
        <rect class="st1" x="212.69" y="369.88" width="7.25" height="9.23" rx=".92" ry=".92"/>
        <rect class="st1" x="202.93" y="369.88" width="7.25" height="9.23" rx=".92" ry=".92"/>
        <rect class="st5" x="247.77" y="318.98" width="5.27" height="6.73"/>
        <rect class="st1" x="231.15" y="346.54" width="36.3" height="8.44"/>
        <rect class="st1" x="182.66" y="322.34" width="12.41" height="12.41"/>
      </g>
      <g>
        <rect class="st0" x="189.36" y="254.43" width="93.25" height="64.55"/>
        <rect class="st5" x="189.36" y="254.43" width="93.25" height="64.55"/>
        <rect class="st3" x="189.36" y="254.43" width="43.27" height="64.55"/>
        <rect class="st1" x="222.22" y="305.33" width="7.25" height="9.23" rx=".92" ry=".92"/>
        <rect class="st1" x="212.46" y="305.33" width="7.25" height="9.23" rx=".92" ry=".92"/>
        <rect class="st5" x="257.29" y="254.43" width="5.27" height="6.73"/>
        <rect class="st1" x="240.67" y="281.99" width="36.3" height="8.44"/>
        <rect class="st1" x="192.19" y="257.79" width="12.41" height="12.41"/>
      </g>
      <g>
        <rect class="st0" x="246.44" y="254.43" width="93.25" height="64.55"/>
        <rect class="st7" x="246.44" y="254.43" width="93.25" height="64.55"/>
        <rect class="st3" x="246.44" y="254.43" width="43.27" height="64.55"/>
        <rect class="st1" x="279.3" y="305.33" width="7.25" height="9.23" rx=".92" ry=".92"/>
        <rect class="st1" x="269.54" y="305.33" width="7.25" height="9.23" rx=".92" ry=".92"/>
        <rect class="st5" x="314.37" y="254.43" width="5.27" height="6.73"/>
        <rect class="st1" x="297.75" y="281.99" width="36.3" height="8.44"/>
        <rect class="st1" x="249.27" y="257.79" width="12.41" height="12.41"/>
      </g>
      <g>
        <rect class="st0" x="214.19" y="189.88" width="93.25" height="64.55"/>
        <rect class="st3" x="214.19" y="189.88" width="43.27" height="64.55"/>
        <rect class="st1" x="247.04" y="240.78" width="7.25" height="9.23" rx=".92" ry=".92"/>
        <rect class="st1" x="237.29" y="240.78" width="7.25" height="9.23" rx=".92" ry=".92"/>
        <rect class="st5" x="282.12" y="189.88" width="5.27" height="6.73"/>
        <rect class="st1" x="265.5" y="217.44" width="36.3" height="8.44"/>
        <rect class="st1" x="217.01" y="193.24" width="12.41" height="12.41"/>
      </g>
      <g>
        <rect class="st8" x="239.18" y="318.98" width="93.25" height="64.55"/>
        <rect class="st3" x="239.18" y="318.98" width="93.25" height="64.55"/>
        <rect class="st3" x="239.18" y="318.98" width="43.27" height="64.55"/>
        <rect class="st1" x="272.03" y="369.88" width="7.25" height="9.23" rx=".92" ry=".92"/>
        <rect class="st1" x="262.27" y="369.88" width="7.25" height="9.23" rx=".92" ry=".92"/>
        <rect class="st5" x="307.11" y="318.98" width="5.27" height="6.73"/>
        <rect class="st1" x="290.49" y="346.54" width="36.3" height="8.44"/>
        <rect class="st1" x="242" y="322.34" width="12.41" height="12.41"/>
      </g>
    </g>
  </g>
</svg>